<svg width="235" height="18" viewBox="0 0 235 18" fill="none" xmlns="http://www.w3.org/2000/svg">
<mask id="path-1-outside-1_5193_61077" maskUnits="userSpaceOnUse" x="0" y="0" width="39" height="18" fill="black">
<rect fill="white" width="39" height="18"/>
<path d="M33.8818 16.999H33.8184L30.9912 17L29.8213 14.8789H31.8662V11.416L29.4092 13.21V10.5674L31.8662 8.77344V8.09766H30.8105L29.1152 4.96875H31.1553L31.8662 6.28613V3.39355H29.1152V1.27344H33.8818V16.999ZM38.8164 16.999H38.7207L38.7217 17H36.0576L34.9951 15.0889H36.8008V11.4619L34.4072 13.21V10.5674L36.8008 8.81934V8.09766H36.1113L34.417 4.96875H36.2461L36.8008 5.99609V3.39355H34.4072V1.27344H38.8164V16.999ZM29.1074 10.7178L26.124 15.4307L26.9873 16.9961H24.665L21.8086 11.8135H24.1299L25.0322 13.4512L26.8105 10.6426L26.623 10.2998H21.8145V8.31934H27.7998L29.1074 10.7178ZM3.87988 16.8105H1.6084L2.65723 13.4512H4.92773L3.87988 16.8105ZM11.1631 12.9893H7.78223V16.8105H5.51465V12.9893H2.13379V9.20996H11.1631V12.9893ZM19.625 10.0078L14.123 16.8105H9.41895L8.37012 13.4512H10.6406L11.583 16.4707L16.8105 10.0078H19.625ZM4.40137 11.4775H8.89453V10.7217H4.40137V11.4775ZM14.6709 10.2598H11.877L16.3564 5.47266H19.1504L14.6709 10.2598ZM11.4775 6.3125H7.66309L7.86133 6.8584H12.2969V8.66406H1V6.8584H5.44824L5.25 6.3125H1.81934V1.27344H11.4775V6.3125ZM29.8242 7.20996H27.6182L25.5039 3.26367H24.834L23.6562 5.47266H25.7188L26.9316 7.76855H24.7295L23.585 5.60352L22.3496 7.9209H20.1074L23.7998 1H26.4971L29.8242 7.20996ZM14.6904 5.47266H11.877L15.877 1.18945H18.6904L14.6904 5.47266ZM4.08691 4.96875H9.20996V4.44336H4.08691V4.96875ZM4.08691 3.1416H9.20996V2.61719H4.08691V3.1416Z"/>
</mask>
<path d="M33.8818 16.999H33.8184L30.9912 17L29.8213 14.8789H31.8662V11.416L29.4092 13.21V10.5674L31.8662 8.77344V8.09766H30.8105L29.1152 4.96875H31.1553L31.8662 6.28613V3.39355H29.1152V1.27344H33.8818V16.999ZM38.8164 16.999H38.7207L38.7217 17H36.0576L34.9951 15.0889H36.8008V11.4619L34.4072 13.21V10.5674L36.8008 8.81934V8.09766H36.1113L34.417 4.96875H36.2461L36.8008 5.99609V3.39355H34.4072V1.27344H38.8164V16.999ZM29.1074 10.7178L26.124 15.4307L26.9873 16.9961H24.665L21.8086 11.8135H24.1299L25.0322 13.4512L26.8105 10.6426L26.623 10.2998H21.8145V8.31934H27.7998L29.1074 10.7178ZM3.87988 16.8105H1.6084L2.65723 13.4512H4.92773L3.87988 16.8105ZM11.1631 12.9893H7.78223V16.8105H5.51465V12.9893H2.13379V9.20996H11.1631V12.9893ZM19.625 10.0078L14.123 16.8105H9.41895L8.37012 13.4512H10.6406L11.583 16.4707L16.8105 10.0078H19.625ZM4.40137 11.4775H8.89453V10.7217H4.40137V11.4775ZM14.6709 10.2598H11.877L16.3564 5.47266H19.1504L14.6709 10.2598ZM11.4775 6.3125H7.66309L7.86133 6.8584H12.2969V8.66406H1V6.8584H5.44824L5.25 6.3125H1.81934V1.27344H11.4775V6.3125ZM29.8242 7.20996H27.6182L25.5039 3.26367H24.834L23.6562 5.47266H25.7188L26.9316 7.76855H24.7295L23.585 5.60352L22.3496 7.9209H20.1074L23.7998 1H26.4971L29.8242 7.20996ZM14.6904 5.47266H11.877L15.877 1.18945H18.6904L14.6904 5.47266ZM4.08691 4.96875H9.20996V4.44336H4.08691V4.96875ZM4.08691 3.1416H9.20996V2.61719H4.08691V3.1416Z" fill="black"/>
<path d="M33.8818 16.999V17.02H33.9028V16.999H33.8818ZM33.8184 16.999V16.978L33.8184 16.978L33.8184 16.999ZM30.9912 17L30.9728 17.0101L30.9788 17.021L30.9912 17.021L30.9912 17ZM29.8213 14.8789V14.8579H29.7857L29.8029 14.889L29.8213 14.8789ZM31.8662 14.8789V14.8999H31.8872V14.8789H31.8662ZM31.8662 11.416H31.8872V11.3747L31.8538 11.3991L31.8662 11.416ZM29.4092 13.21H29.3882V13.2513L29.4216 13.2269L29.4092 13.21ZM29.4092 10.5674L29.3968 10.5504L29.3882 10.5567V10.5674H29.4092ZM31.8662 8.77344L31.8786 8.7904L31.8872 8.78411V8.77344H31.8662ZM31.8662 8.09766H31.8872V8.07666H31.8662V8.09766ZM30.8105 8.09766L30.7921 8.10766L30.798 8.11865H30.8105V8.09766ZM29.1152 4.96875V4.94775H29.08L29.0968 4.97875L29.1152 4.96875ZM31.1553 4.96875L31.1738 4.95878L31.1678 4.94775H31.1553V4.96875ZM31.8662 6.28613L31.8477 6.2961L31.8872 6.28613H31.8662ZM31.8662 3.39355H31.8872V3.37256H31.8662V3.39355ZM29.1152 3.39355H29.0942V3.41455H29.1152V3.39355ZM29.1152 1.27344V1.25244H29.0942V1.27344H29.1152ZM33.8818 1.27344H33.9028V1.25244H33.8818V1.27344ZM38.8164 16.999V17.02H38.8374V16.999H38.8164ZM38.7207 16.999V16.978H38.67L38.7059 17.0139L38.7207 16.999ZM38.7217 17V17.021H38.7724L38.7365 16.9852L38.7217 17ZM36.0576 17L36.0393 17.0102L36.0453 17.021H36.0576V17ZM34.9951 15.0889V15.0679H34.9594L34.9768 15.0991L34.9951 15.0889ZM36.8008 15.0889V15.1099H36.8218V15.0889H36.8008ZM36.8008 11.4619H36.8218V11.4206L36.7884 11.445L36.8008 11.4619ZM34.4072 13.21H34.3862V13.2513L34.4196 13.2269L34.4072 13.21ZM34.4072 10.5674L34.3948 10.5504L34.3862 10.5567V10.5674H34.4072ZM36.8008 8.81934L36.8132 8.83629L36.8218 8.83V8.81934H36.8008ZM36.8008 8.09766H36.8218V8.07666H36.8008V8.09766ZM36.1113 8.09766L36.0929 8.10765L36.0988 8.11865H36.1113V8.09766ZM34.417 4.96875V4.94775H34.3817L34.3985 4.97875L34.417 4.96875ZM36.2461 4.96875L36.2646 4.95877L36.2586 4.94775H36.2461V4.96875ZM36.8008 5.99609L36.7823 6.00607L36.8218 5.99609H36.8008ZM36.8008 3.39355H36.8218V3.37256H36.8008V3.39355ZM34.4072 3.39355H34.3862V3.41455H34.4072V3.39355ZM34.4072 1.27344V1.25244H34.3862V1.27344H34.4072ZM38.8164 1.27344H38.8374V1.25244H38.8164V1.27344ZM29.1074 10.7178L29.1252 10.729L29.1318 10.7186L29.1259 10.7077L29.1074 10.7178ZM26.124 15.4307L26.1063 15.4194L26.0996 15.4299L26.1056 15.4408L26.124 15.4307ZM26.9873 16.9961V17.0171H27.0229L27.0057 16.986L26.9873 16.9961ZM24.665 16.9961L24.6466 17.0062L24.6526 17.0171H24.665V16.9961ZM21.8086 11.8135V11.7925H21.773L21.7902 11.8236L21.8086 11.8135ZM24.1299 11.8135L24.1483 11.8033L24.1423 11.7925H24.1299V11.8135ZM25.0322 13.4512L25.0138 13.4613L25.031 13.4924L25.05 13.4624L25.0322 13.4512ZM26.8105 10.6426L26.8283 10.6538L26.8349 10.6434L26.829 10.6325L26.8105 10.6426ZM26.623 10.2998L26.6415 10.2897L26.6355 10.2788H26.623V10.2998ZM21.8145 10.2998H21.7935V10.3208H21.8145V10.2998ZM21.8145 8.31934V8.29834H21.7935V8.31934H21.8145ZM27.7998 8.31934L27.8182 8.30928L27.8123 8.29834H27.7998V8.31934ZM3.87988 16.8105V16.8315H3.89533L3.89993 16.8168L3.87988 16.8105ZM1.6084 16.8105L1.58836 16.8043L1.57985 16.8315H1.6084V16.8105ZM2.65723 13.4512V13.4302H2.64179L2.63718 13.4449L2.65723 13.4512ZM4.92773 13.4512L4.94778 13.4574L4.95628 13.4302H4.92773V13.4512ZM11.1631 12.9893V13.0103H11.1841V12.9893H11.1631ZM7.78223 12.9893V12.9683H7.76123V12.9893H7.78223ZM7.78223 16.8105V16.8315H7.80322V16.8105H7.78223ZM5.51465 16.8105H5.49365V16.8315H5.51465V16.8105ZM5.51465 12.9893H5.53565V12.9683H5.51465V12.9893ZM2.13379 12.9893H2.11279V13.0103H2.13379V12.9893ZM2.13379 9.20996V9.18896H2.11279V9.20996H2.13379ZM11.1631 9.20996H11.1841V9.18896H11.1631V9.20996ZM19.625 10.0078L19.6413 10.021L19.669 9.98682H19.625V10.0078ZM14.123 16.8105V16.8315H14.1331L14.1394 16.8238L14.123 16.8105ZM9.41895 16.8105L9.3989 16.8168L9.4035 16.8315H9.41895V16.8105ZM8.37012 13.4512V13.4302H8.34156L8.35007 13.4574L8.37012 13.4512ZM10.6406 13.4512L10.6607 13.4449L10.6561 13.4302H10.6406V13.4512ZM11.583 16.4707L11.563 16.477L11.5747 16.5144L11.5993 16.4839L11.583 16.4707ZM16.8105 10.0078V9.98682H16.8005L16.7942 9.99461L16.8105 10.0078ZM4.40137 11.4775H4.38037V11.4985H4.40137V11.4775ZM8.89453 11.4775V11.4985H8.91553V11.4775H8.89453ZM8.89453 10.7217H8.91553V10.7007H8.89453V10.7217ZM4.40137 10.7217V10.7007H4.38037V10.7217H4.40137ZM14.6709 10.2598V10.2808H14.68L14.6862 10.2741L14.6709 10.2598ZM11.877 10.2598L11.8616 10.2454L11.8285 10.2808H11.877V10.2598ZM16.3564 5.47266V5.45166H16.3473L16.3411 5.45831L16.3564 5.47266ZM19.1504 5.47266L19.1657 5.487L19.1988 5.45166H19.1504V5.47266ZM11.4775 6.3125V6.3335H11.4985V6.3125H11.4775ZM7.66309 6.3125V6.2915H7.63312L7.64335 6.31967L7.66309 6.3125ZM7.86133 6.8584L7.84159 6.86557L7.84661 6.8794H7.86133V6.8584ZM12.2969 6.8584H12.3179V6.8374H12.2969V6.8584ZM12.2969 8.66406V8.68506H12.3179V8.66406H12.2969ZM1 8.66406H0.979003V8.68506H1V8.66406ZM1 6.8584V6.8374H0.979003V6.8584H1ZM5.44824 6.8584V6.8794H5.47821L5.46798 6.85123L5.44824 6.8584ZM5.25 6.3125L5.26974 6.30533L5.26471 6.2915H5.25V6.3125ZM1.81934 6.3125H1.79834V6.3335H1.81934V6.3125ZM1.81934 1.27344V1.25244H1.79834V1.27344H1.81934ZM11.4775 1.27344H11.4985V1.25244H11.4775V1.27344ZM29.8242 7.20996V7.23096H29.8593L29.8427 7.20004L29.8242 7.20996ZM27.6182 7.20996L27.5997 7.21988L27.6056 7.23096H27.6182V7.20996ZM25.5039 3.26367L25.5224 3.25376L25.5165 3.24267H25.5039V3.26367ZM24.834 3.26367V3.24267H24.8214L24.8155 3.25379L24.834 3.26367ZM23.6562 5.47266L23.6377 5.46278L23.6213 5.49365H23.6562V5.47266ZM25.7188 5.47266L25.7373 5.46285L25.7314 5.45166H25.7188V5.47266ZM26.9316 7.76855V7.78955H26.9665L26.9502 7.75875L26.9316 7.76855ZM24.7295 7.76855L24.7109 7.77837L24.7168 7.78955H24.7295V7.76855ZM23.585 5.60352L23.6035 5.5937L23.585 5.55873L23.5664 5.59364L23.585 5.60352ZM22.3496 7.9209V7.9419H22.3622L22.3681 7.93078L22.3496 7.9209ZM20.1074 7.9209L20.0889 7.91101L20.0724 7.9419H20.1074V7.9209ZM23.7998 1V0.979003H23.7872L23.7813 0.990116L23.7998 1ZM26.4971 1L26.5156 0.990084L26.5096 0.979003H26.4971V1ZM14.6904 5.47266V5.49365H14.6996L14.7058 5.48699L14.6904 5.47266ZM11.877 5.47266L11.8616 5.45832L11.8286 5.49365H11.877V5.47266ZM15.877 1.18945V1.16846H15.8678L15.8616 1.17512L15.877 1.18945ZM18.6904 1.18945L18.7058 1.20378L18.7388 1.16846H18.6904V1.18945ZM4.08691 4.96875H4.06592V4.98975H4.08691V4.96875ZM9.20996 4.96875V4.98975H9.23096V4.96875H9.20996ZM9.20996 4.44336H9.23096V4.42236H9.20996V4.44336ZM4.08691 4.44336V4.42236H4.06592V4.44336H4.08691ZM4.08691 3.1416H4.06592V3.1626H4.08691V3.1416ZM9.20996 3.1416V3.1626H9.23096V3.1416H9.20996ZM9.20996 2.61719H9.23096V2.59619H9.20996V2.61719ZM4.08691 2.61719V2.59619H4.06592V2.61719H4.08691ZM33.8818 16.999V16.978H33.8184V16.999V17.02H33.8818V16.999ZM33.8184 16.999L33.8184 16.978L30.9912 16.979L30.9912 17L30.9912 17.021L33.8184 17.02L33.8184 16.999ZM30.9912 17L31.0096 16.9899L29.8397 14.8688L29.8213 14.8789L29.8029 14.889L30.9728 17.0101L30.9912 17ZM29.8213 14.8789V14.8999H31.8662V14.8789V14.8579H29.8213V14.8789ZM31.8662 14.8789H31.8872V11.416H31.8662H31.8452V14.8789H31.8662ZM31.8662 11.416L31.8538 11.3991L29.3968 13.193L29.4092 13.21L29.4216 13.2269L31.8786 11.433L31.8662 11.416ZM29.4092 13.21H29.4302V10.5674H29.4092H29.3882V13.21H29.4092ZM29.4092 10.5674L29.4216 10.5843L31.8786 8.7904L31.8662 8.77344L31.8538 8.75648L29.3968 10.5504L29.4092 10.5674ZM31.8662 8.77344H31.8872V8.09766H31.8662H31.8452V8.77344H31.8662ZM31.8662 8.09766V8.07666H30.8105V8.09766V8.11865H31.8662V8.09766ZM30.8105 8.09766L30.829 8.08765L29.1337 4.95875L29.1152 4.96875L29.0968 4.97875L30.7921 8.10766L30.8105 8.09766ZM29.1152 4.96875V4.98975H31.1553V4.96875V4.94775H29.1152V4.96875ZM31.1553 4.96875L31.1368 4.97872L31.8477 6.2961L31.8662 6.28613L31.8847 6.27616L31.1738 4.95878L31.1553 4.96875ZM31.8662 6.28613H31.8872V3.39355H31.8662H31.8452V6.28613H31.8662ZM31.8662 3.39355V3.37256H29.1152V3.39355V3.41455H31.8662V3.39355ZM29.1152 3.39355H29.1362V1.27344H29.1152H29.0942V3.39355H29.1152ZM29.1152 1.27344V1.29443H33.8818V1.27344V1.25244H29.1152V1.27344ZM33.8818 1.27344H33.8608V16.999H33.8818H33.9028V1.27344H33.8818ZM38.8164 16.999V16.978H38.7207V16.999V17.02H38.8164V16.999ZM38.7207 16.999L38.7059 17.0139L38.7068 17.0148L38.7217 17L38.7365 16.9852L38.7356 16.9842L38.7207 16.999ZM38.7217 17V16.979H36.0576V17V17.021H38.7217V17ZM36.0576 17L36.076 16.9898L35.0135 15.0787L34.9951 15.0889L34.9768 15.0991L36.0393 17.0102L36.0576 17ZM34.9951 15.0889V15.1099H36.8008V15.0889V15.0679H34.9951V15.0889ZM36.8008 15.0889H36.8218V11.4619H36.8008H36.7798V15.0889H36.8008ZM36.8008 11.4619L36.7884 11.445L34.3948 13.193L34.4072 13.21L34.4196 13.2269L36.8132 11.4789L36.8008 11.4619ZM34.4072 13.21H34.4282V10.5674H34.4072H34.3862V13.21H34.4072ZM34.4072 10.5674L34.4196 10.5843L36.8132 8.83629L36.8008 8.81934L36.7884 8.80238L34.3948 10.5504L34.4072 10.5674ZM36.8008 8.81934H36.8218V8.09766H36.8008H36.7798V8.81934H36.8008ZM36.8008 8.09766V8.07666H36.1113V8.09766V8.11865H36.8008V8.09766ZM36.1113 8.09766L36.1298 8.08766L34.4355 4.95875L34.417 4.96875L34.3985 4.97875L36.0929 8.10765L36.1113 8.09766ZM34.417 4.96875V4.98975H36.2461V4.96875V4.94775H34.417V4.96875ZM36.2461 4.96875L36.2276 4.97873L36.7823 6.00607L36.8008 5.99609L36.8193 5.98612L36.2646 4.95877L36.2461 4.96875ZM36.8008 5.99609H36.8218V3.39355H36.8008H36.7798V5.99609H36.8008ZM36.8008 3.39355V3.37256H34.4072V3.39355V3.41455H36.8008V3.39355ZM34.4072 3.39355H34.4282V1.27344H34.4072H34.3862V3.39355H34.4072ZM34.4072 1.27344V1.29443H38.8164V1.27344V1.25244H34.4072V1.27344ZM38.8164 1.27344H38.7954V16.999H38.8164H38.8374V1.27344H38.8164ZM29.1074 10.7178L29.0897 10.7065L26.1063 15.4194L26.124 15.4307L26.1418 15.4419L29.1252 10.729L29.1074 10.7178ZM26.124 15.4307L26.1056 15.4408L26.9689 17.0062L26.9873 16.9961L27.0057 16.986L26.1424 15.4205L26.124 15.4307ZM26.9873 16.9961V16.9751H24.665V16.9961V17.0171H26.9873V16.9961ZM24.665 16.9961L24.6834 16.986L21.827 11.8033L21.8086 11.8135L21.7902 11.8236L24.6466 17.0062L24.665 16.9961ZM21.8086 11.8135V11.8345H24.1299V11.8135V11.7925H21.8086V11.8135ZM24.1299 11.8135L24.1115 11.8236L25.0138 13.4613L25.0322 13.4512L25.0506 13.441L24.1483 11.8033L24.1299 11.8135ZM25.0322 13.4512L25.05 13.4624L26.8283 10.6538L26.8105 10.6426L26.7928 10.6313L25.0145 13.4399L25.0322 13.4512ZM26.8105 10.6426L26.829 10.6325L26.6415 10.2897L26.623 10.2998L26.6046 10.3099L26.7921 10.6527L26.8105 10.6426ZM26.623 10.2998V10.2788H21.8145V10.2998V10.3208H26.623V10.2998ZM21.8145 10.2998H21.8355V8.31934H21.8145H21.7935V10.2998H21.8145ZM21.8145 8.31934V8.34033H27.7998V8.31934V8.29834H21.8145V8.31934ZM27.7998 8.31934L27.7814 8.32939L29.089 10.7278L29.1074 10.7178L29.1259 10.7077L27.8182 8.30928L27.7998 8.31934ZM3.87988 16.8105V16.7895H1.6084V16.8105V16.8315H3.87988V16.8105ZM1.6084 16.8105L1.62844 16.8168L2.67727 13.4574L2.65723 13.4512L2.63718 13.4449L1.58836 16.8043L1.6084 16.8105ZM2.65723 13.4512V13.4722H4.92773V13.4512V13.4302H2.65723V13.4512ZM4.92773 13.4512L4.90769 13.4449L3.85984 16.8043L3.87988 16.8105L3.89993 16.8168L4.94778 13.4574L4.92773 13.4512ZM11.1631 12.9893V12.9683H7.78223V12.9893V13.0103H11.1631V12.9893ZM7.78223 12.9893H7.76123V16.8105H7.78223H7.80322V12.9893H7.78223ZM7.78223 16.8105V16.7895H5.51465V16.8105V16.8315H7.78223V16.8105ZM5.51465 16.8105H5.53565V12.9893H5.51465H5.49365V16.8105H5.51465ZM5.51465 12.9893V12.9683H2.13379V12.9893V13.0103H5.51465V12.9893ZM2.13379 12.9893H2.15479V9.20996H2.13379H2.11279V12.9893H2.13379ZM2.13379 9.20996V9.23096H11.1631V9.20996V9.18896H2.13379V9.20996ZM11.1631 9.20996H11.1421V12.9893H11.1631H11.1841V9.20996H11.1631ZM19.625 10.0078L19.6087 9.99461L14.1067 16.7973L14.123 16.8105L14.1394 16.8238L19.6413 10.021L19.625 10.0078ZM14.123 16.8105V16.7895H9.41895V16.8105V16.8315H14.123V16.8105ZM9.41895 16.8105L9.43899 16.8043L8.39016 13.4449L8.37012 13.4512L8.35007 13.4574L9.3989 16.8168L9.41895 16.8105ZM8.37012 13.4512V13.4722H10.6406V13.4512V13.4302H8.37012V13.4512ZM10.6406 13.4512L10.6206 13.4574L11.563 16.477L11.583 16.4707L11.6031 16.4644L10.6607 13.4449L10.6406 13.4512ZM11.583 16.4707L11.5993 16.4839L16.8269 10.021L16.8105 10.0078L16.7942 9.99461L11.5667 16.4575L11.583 16.4707ZM16.8105 10.0078V10.0288H19.625V10.0078V9.98682H16.8105V10.0078ZM4.40137 11.4775V11.4985H8.89453V11.4775V11.4565H4.40137V11.4775ZM8.89453 11.4775H8.91553V10.7217H8.89453H8.87353V11.4775H8.89453ZM8.89453 10.7217V10.7007H4.40137V10.7217V10.7427H8.89453V10.7217ZM4.40137 10.7217H4.38037V11.4775H4.40137H4.42236V10.7217H4.40137ZM14.6709 10.2598V10.2388H11.877V10.2598V10.2808H14.6709V10.2598ZM11.877 10.2598L11.8923 10.2741L16.3718 5.487L16.3564 5.47266L16.3411 5.45831L11.8616 10.2454L11.877 10.2598ZM16.3564 5.47266V5.49365H19.1504V5.47266V5.45166H16.3564V5.47266ZM19.1504 5.47266L19.1351 5.45831L14.6556 10.2454L14.6709 10.2598L14.6862 10.2741L19.1657 5.487L19.1504 5.47266ZM11.4775 6.3125V6.2915H7.66309V6.3125V6.3335H11.4775V6.3125ZM7.66309 6.3125L7.64335 6.31967L7.84159 6.86557L7.86133 6.8584L7.88106 6.85123L7.68282 6.30533L7.66309 6.3125ZM7.86133 6.8584V6.8794H12.2969V6.8584V6.8374H7.86133V6.8584ZM12.2969 6.8584H12.2759V8.66406H12.2969H12.3179V6.8584H12.2969ZM12.2969 8.66406V8.64307H1V8.66406V8.68506H12.2969V8.66406ZM1 8.66406H1.021V6.8584H1H0.979003V8.66406H1ZM1 6.8584V6.8794H5.44824V6.8584V6.8374H1V6.8584ZM5.44824 6.8584L5.46798 6.85123L5.26974 6.30533L5.25 6.3125L5.23026 6.31967L5.42851 6.86557L5.44824 6.8584ZM5.25 6.3125V6.2915H1.81934V6.3125V6.3335H5.25V6.3125ZM1.81934 6.3125H1.84033V1.27344H1.81934H1.79834V6.3125H1.81934ZM1.81934 1.27344V1.29443H11.4775V1.27344V1.25244H1.81934V1.27344ZM11.4775 1.27344H11.4565V6.3125H11.4775H11.4985V1.27344H11.4775ZM29.8242 7.20996V7.18896H27.6182V7.20996V7.23096H29.8242V7.20996ZM27.6182 7.20996L27.6367 7.20004L25.5224 3.25376L25.5039 3.26367L25.4854 3.27359L27.5997 7.21988L27.6182 7.20996ZM25.5039 3.26367V3.24267H24.834V3.26367V3.28467H25.5039V3.26367ZM24.834 3.26367L24.8155 3.25379L23.6377 5.46278L23.6562 5.47266L23.6748 5.48253L24.8525 3.27355L24.834 3.26367ZM23.6562 5.47266V5.49365H25.7188V5.47266V5.45166H23.6562V5.47266ZM25.7188 5.47266L25.7002 5.48246L26.9131 7.77836L26.9316 7.76855L26.9502 7.75875L25.7373 5.46285L25.7188 5.47266ZM26.9316 7.76855V7.74756H24.7295V7.76855V7.78955H26.9316V7.76855ZM24.7295 7.76855L24.7481 7.75874L23.6035 5.5937L23.585 5.60352L23.5664 5.61333L24.7109 7.77837L24.7295 7.76855ZM23.585 5.60352L23.5664 5.59364L22.3311 7.91102L22.3496 7.9209L22.3681 7.93078L23.6035 5.61339L23.585 5.60352ZM22.3496 7.9209V7.8999H20.1074V7.9209V7.9419H22.3496V7.9209ZM20.1074 7.9209L20.1259 7.93078L23.8183 1.00988L23.7998 1L23.7813 0.990116L20.0889 7.91101L20.1074 7.9209ZM23.7998 1V1.021H26.4971V1V0.979003H23.7998V1ZM26.4971 1L26.4786 1.00992L29.8057 7.21988L29.8242 7.20996L29.8427 7.20004L26.5156 0.990084L26.4971 1ZM14.6904 5.47266V5.45166H11.877V5.47266V5.49365H14.6904V5.47266ZM11.877 5.47266L11.8923 5.48699L15.8923 1.20378L15.877 1.18945L15.8616 1.17512L11.8616 5.45832L11.877 5.47266ZM15.877 1.18945V1.21045H18.6904V1.18945V1.16846H15.877V1.18945ZM18.6904 1.18945L18.6751 1.17512L14.6751 5.45832L14.6904 5.47266L14.7058 5.48699L18.7058 1.20378L18.6904 1.18945ZM4.08691 4.96875V4.98975H9.20996V4.96875V4.94775H4.08691V4.96875ZM9.20996 4.96875H9.23096V4.44336H9.20996H9.18896V4.96875H9.20996ZM9.20996 4.44336V4.42236H4.08691V4.44336V4.46436H9.20996V4.44336ZM4.08691 4.44336H4.06592V4.96875H4.08691H4.10791V4.44336H4.08691ZM4.08691 3.1416V3.1626H9.20996V3.1416V3.1206H4.08691V3.1416ZM9.20996 3.1416H9.23096V2.61719H9.20996H9.18896V3.1416H9.20996ZM9.20996 2.61719V2.59619H4.08691V2.61719V2.63818H9.20996V2.61719ZM4.08691 2.61719H4.06592V3.1416H4.08691H4.10791V2.61719H4.08691Z" fill="black" mask="url(#path-1-outside-1_5193_61077)"/>
<path d="M54.8689 4.81231H53.1992L46.8733 15.6941H43.9902L51.9272 2.30078H56.1316L64.0871 15.6941H61.1855L54.8704 4.81231H54.8689Z" fill="black"/>
<path d="M162.592 4.81231H160.922L154.596 15.6941H151.713L159.65 2.30078H163.854L171.81 15.6941H168.908L162.593 4.81231H162.592Z" fill="black"/>
<path d="M184.644 2.30078H187.546L179.591 15.6941H175.386L167.449 2.30078H170.332L176.658 13.0977H178.328L184.643 2.30078H184.644Z" fill="black"/>
<path d="M80.6995 12.7744V2.30273H83.2111V15.696H80.0674L68.3084 5.20433V15.696H65.7969V2.30273H68.959L80.698 12.7744H80.6995Z" fill="black"/>
<path d="M103.324 2.30078V4.81231H95.6844V15.6941H93.1729V4.81231H85.626V2.30078H103.322H103.324Z" fill="black"/>
<path d="M106.244 2.30078H108.756V15.6941H106.244V2.30078Z" fill="black"/>
<path d="M149.998 15.6941H146.928L144.269 11.8242H135.003V15.6941H132.491V2.30078H146.054C146.637 2.30078 147.18 2.40562 147.682 2.61684C148.185 2.82806 148.624 3.10712 149.002 3.45402C149.38 3.80091 149.677 4.20177 149.895 4.65351C150.112 5.10679 150.22 5.56777 150.22 6.03955V7.99296C150.22 8.39074 150.137 8.79314 149.969 9.2017C149.801 9.61027 149.579 9.98954 149.299 10.3364C149.02 10.6833 148.698 10.9778 148.333 11.2199C147.967 11.4619 147.591 11.6192 147.207 11.6947L149.998 15.6941ZM147.71 7.37934V6.67167C147.71 6.42345 147.658 6.18602 147.551 5.9563C147.446 5.72657 147.291 5.52769 147.086 5.36118C146.88 5.19312 146.645 5.06053 146.379 4.96186C146.113 4.86319 145.812 4.81231 145.477 4.81231H135.003V9.31425H145.477C145.874 9.31425 146.214 9.25566 146.501 9.13695C146.786 9.01977 147.019 8.86714 147.198 8.68059C147.378 8.49403 147.508 8.28744 147.588 8.05772C147.668 7.82799 147.708 7.60135 147.708 7.37934H147.71Z" fill="black"/>
<path d="M189.958 2.30078H192.47V15.6941H189.958V2.30078Z" fill="black"/>
<path d="M213.006 2.30078V4.81231H205.367V15.6941H202.856V4.81231H195.309V2.30078H213.005H213.006Z" fill="black"/>
<path d="M225.601 8.69909L231.25 2.30078H234.599L226.699 11.2291H226.141V15.6941H223.63V11.2291H223.053L215.023 2.30078H218.391L224.132 8.69909H225.601Z" fill="black"/>
<path d="M120.973 11.2284H125.404C125.388 11.27 125.347 11.5229 125.263 11.7048C125.115 12.0332 124.923 12.3076 124.688 12.5312C124.453 12.7547 124.187 12.9305 123.89 13.06C123.592 13.1895 123.296 13.2543 122.999 13.2543H116.815C116.443 13.2543 116.099 13.1957 115.785 13.0785C115.469 12.9613 115.191 12.7871 114.949 12.5589C114.709 12.3308 114.522 12.0609 114.393 11.7511C114.263 11.4427 114.198 11.0958 114.198 10.7119V7.44954C114.198 7.04098 114.263 6.5214 114.393 6.20072C114.522 5.88003 114.705 5.60405 114.94 5.37433C115.174 5.14615 115.45 4.96885 115.766 4.84551C116.082 4.72217 116.425 4.6605 116.796 4.6605H124.607C124.991 4.6605 125.333 4.72833 125.637 4.86401C125.94 4.99968 126.199 5.18624 126.417 5.42059C126.633 5.65647 126.801 5.92474 126.918 6.22847C126.97 6.3626 127.007 6.66787 127.037 6.80663H129.61C129.59 6.3071 129.491 5.80911 129.303 5.31112C129.092 4.75454 128.799 4.25347 128.421 3.8079C128.043 3.36234 127.588 3.00002 127.057 2.7225C126.525 2.44345 125.937 2.30469 125.293 2.30469H115.831C115.262 2.30469 114.724 2.41261 114.217 2.63C113.71 2.84739 113.267 3.14341 112.889 3.52114C112.512 3.89887 112.214 4.33827 111.998 4.83934C111.781 5.34041 111.673 5.88157 111.673 6.46282V11.5383C111.673 12.1072 111.781 12.6453 111.998 13.1525C112.214 13.6598 112.512 14.1022 112.889 14.48C113.267 14.8577 113.708 15.1553 114.217 15.3711C114.724 15.5885 115.262 15.6964 115.831 15.6964H123.685C124.328 15.6964 124.917 15.5577 125.448 15.2786C125.98 14.9995 126.435 14.6357 126.813 14.184C126.938 14.0344 126.998 13.945 127.083 13.7692V15.6995H129.61V8.70608H120.971V11.233L120.973 11.2284Z" fill="black"/>
</svg>
