<?xml version="1.0" encoding="UTF-8"?>
<svg id="_图层_1" data-name="图层 1" xmlns="http://www.w3.org/2000/svg" viewBox="0 0 600 600">
  <path d="M405.17,267.61h18.4c0,7.19,0,14.03,0,20.88,0,18.23,.16,36.46-.09,54.69-.15,11.32-6.79,17.93-18.32,18.78v-94.35Z"/>
  <path d="M264.94,333.38c-10.36-.59-17.53-6.13-17.93-15.66-.68-16.4-.19-32.86-.19-49.79,6.12,0,11.87,0,18.12,0,0,21.97,0,43.7,0,65.45Z"/>
  <path d="M351.79,333.18v-64.98c10.16-.2,17.64,6.04,18.36,16.54,.72,10.46,.68,21.03,.06,31.5-.59,9.91-7.04,15.54-18.41,16.93Z"/>
  <path d="M290.64,333.3h-18.09v-65.26c10.01,.19,17.64,6.36,17.95,15.97,.52,16.13,.14,32.28,.14,49.29Z"/>
  <path d="M298.28,333.38v-65.56h17.93c0,16.86,.8,33.92-.33,50.85-.57,8.59-7.72,13.3-17.6,14.71Z"/>
  <path d="M164.54,333.06v-65.39c10.45,.38,17.6,6.27,18.19,16.25,.66,11.04,.63,22.18,0,33.22-.55,9.49-7.27,14.98-18.19,15.91Z"/>
  <path d="M218.51,333.38v-41.26c10.08-.51,17.54,5.69,18.2,15.77,.55,8.24,.11,16.55,.11,25.48h-18.32Z"/>
  <path d="M156.7,332.91c-11.12-.51-17.46-7.05-18.04-18.61-.69-13.75,4.81-21.07,18.03-22.96,0,13.92,0,27.74,0,41.57Z"/>
  <path d="M344.08,333.28c-13.5-1.94-18.8-9.03-18.19-23.44,.46-10.98,6.78-17.47,18.19-18.15v41.59Z"/>
  <path d="M86.97,248.35h17.77v84.64h-17.77v-84.64Z"/>
  <path d="M218.48,285.46v-17.71h17.68c.11,10.49-5.79,16.63-17.68,17.71Z"/>
  <path d="M344.62,285.61h-17.88c-.25-10.5,5.35-16.39,17.88-18.03v18.03Z"/>
  <path d="M482.3,249.63c-10.36,.76-17.53,7.84-17.93,20.04-.68,20.99-.19,42.04-.19,63.71,6.12,0,11.87,0,18.12,0,0-28.12,0-55.91,0-83.74Z"/>
  <path d="M490.03,249.63c10.36,.76,17.53,7.84,17.93,20.04,.68,20.99,.19,42.04,.19,63.71-6.12,0-11.87,0-18.12,0,0-28.12,0-55.91,0-83.74Z"/>
  <path d="M520.95,269.28v17.71h17.68c.11-10.49-5.79-16.63-17.68-17.71Z"/>
  <path d="M520.95,292.5v40.85c10.08,.51,17.54-5.64,18.2-15.62,.55-8.16,.11-16.39,.11-25.23h-18.32Z"/>
  <path d="M451.38,333.05c0-6.05,0-11.63,0-17.71-6.11,0-11.89,0-17.68,0-.11,10.49,5.79,16.63,17.68,17.71Z"/>
  <path d="M210.46,333.38c-6.34,0-11.89,0-18.4,0,0-7.26,0-14.18,0-21.1,0-18.42-.16-36.84,.09-55.26,.15-11.44,6.79-18.12,18.32-18.98,0,31.58,0,63.14,0,95.34Z"/>
  <path d="M397.27,333.38c-10.36-.59-17.53-6.15-17.93-15.72-.68-16.47-.19-32.99-.19-49.99,6.12,0,11.87,0,18.12,0,0,22.06,0,43.87,0,65.71Z"/>
  <path d="M112.55,285.71v-37.34c10.08-.47,17.54,5.15,18.2,14.27,.55,7.46,.11,14.98,.11,23.06h-18.32Z"/>
  <path d="M79.05,285.71c0-12.66,0-25.01,0-37.34-10.08-.47-17.54,5.15-18.2,14.27-.55,7.46-.11,14.98-.11,23.06,5.93,0,11.68,0,18.32,0Z"/>
  <path d="M156.35,285.71h-17.88c-.25-10.5,5.35-16.4,17.88-18.04v18.04Z"/>
</svg>